<svg width="34" height="34" viewBox="0 0 34 34" fill="none" xmlns="http://www.w3.org/2000/svg">
<rect x="0.25" y="0.25" width="33.5" height="33.5" rx="16.75" fill="white"/>
<rect x="0.25" y="0.25" width="33.5" height="33.5" rx="16.75" stroke="#F0F0F0" stroke-width="0.5"/>
<path fill-rule="evenodd" clip-rule="evenodd" d="M14.015 9.70833C14.2483 9.21667 14.7517 8.875 15.3333 8.875H18.6667C19.2483 8.875 19.7508 9.21667 19.985 9.70833C20.5542 9.71333 20.9983 9.73917 21.395 9.89417C21.8685 10.0794 22.2803 10.3942 22.5833 10.8025C22.8892 11.2142 23.0333 11.7417 23.23 12.4675L23.8483 14.7358L24.0817 15.4367L24.1017 15.4617C24.8525 16.4233 24.495 17.8533 23.78 20.7125C23.325 22.5317 23.0983 23.4408 22.42 23.9708C21.7417 24.5 20.8042 24.5 18.9292 24.5H15.0708C13.1958 24.5 12.2583 24.5 11.58 23.9708C10.9017 23.4408 10.6742 22.5317 10.22 20.7125C9.505 17.8533 9.1475 16.4233 9.89833 15.4617L9.91833 15.4367L10.1517 14.7358L10.77 12.4675C10.9675 11.7417 11.1117 11.2133 11.4167 10.8017C11.7198 10.3937 12.1316 10.0792 12.605 9.89417C13.0017 9.73917 13.445 9.7125 14.015 9.70833ZM14.0167 10.9608C13.465 10.9667 13.2433 10.9875 13.06 11.0592C12.805 11.1589 12.5832 11.3284 12.42 11.5483C12.2733 11.7458 12.1867 12.0217 11.945 12.9108L11.47 14.6517C12.32 14.5 13.4817 14.5 15.07 14.5H18.9292C20.5183 14.5 21.6792 14.5 22.5292 14.65L22.055 12.9092C21.8133 12.02 21.7267 11.7442 21.58 11.5467C21.4168 11.3268 21.195 11.1572 20.94 11.0575C20.7567 10.9858 20.535 10.965 19.9833 10.9592C19.865 11.2082 19.6785 11.4186 19.4455 11.5659C19.2124 11.7133 18.9424 11.7916 18.6667 11.7917H15.3333C15.0577 11.7916 14.7877 11.7135 14.5547 11.5663C14.3217 11.4191 14.1351 11.2097 14.0167 10.9608Z" fill="url(#paint0_linear_2106_2027)"/>
<defs>
<linearGradient id="paint0_linear_2106_2027" x1="17.087" y1="24.5" x2="17.087" y2="8.875" gradientUnits="userSpaceOnUse">
<stop stop-color="#008F5F"/>
<stop offset="1" stop-color="#1D3557"/>
</linearGradient>
</defs>
</svg>
