<svg width="40" height="40" viewBox="0 0 40 40" fill="none" xmlns="http://www.w3.org/2000/svg">
<rect width="40" height="40" rx="12" fill="white"/>
<g clip-path="url(#clip0_1_5405)">
<path d="M5.5 16.8203H34.5V23.1839H5.5V16.8203Z" fill="#F9CB38"/>
<path d="M29.9688 10H10.0312C7.02839 10 5.5 12.2386 5.5 15V16.8182H34.5V15C34.5 12.2386 32.9716 10 29.9688 10Z" fill="#128807"/>
<path d="M5.5 24.9979C5.5 27.7592 7.02839 29.9979 10.0312 29.9979H29.9688C32.9716 29.9979 34.5 27.7592 34.5 24.9979V23.1797H5.5V24.9979Z" fill="#EC1C24"/>
<path fill-rule="evenodd" clip-rule="evenodd" d="M15.7016 21.7124C15.5081 21.3501 15.3396 20.9779 15.2376 20.5779C14.9259 19.3529 15.0582 18.1811 15.6518 17.0629C15.6686 17.0301 15.685 16.9971 15.7007 16.9638C15.9427 16.5715 16.2173 16.2056 16.5549 15.8897C17.3438 15.1524 18.2704 14.7124 19.3466 14.6188C20.9008 14.4838 22.2144 14.997 23.2901 16.1265C23.5307 16.3801 23.7256 16.6688 23.9109 16.9633C24.103 17.3261 24.2725 17.6992 24.3735 18.0988C24.688 19.3361 24.5507 20.5179 23.9422 21.6411C23.9304 21.6642 23.92 21.6888 23.9095 21.7115C23.6716 22.097 23.4029 22.4583 23.0708 22.7701C22.1433 23.6383 21.0471 24.0983 19.7775 24.077C18.0148 24.0447 16.6722 23.247 15.7329 21.7565C15.7229 21.7415 15.7125 21.7268 15.7016 21.7124Z" fill="#0F47AE"/>
<path fill-rule="evenodd" clip-rule="evenodd" d="M21.0796 19.4686L22.4815 18.4472C22.5205 18.419 22.5658 18.395 22.5975 18.3604C22.815 18.1263 23.0928 18.1445 23.3932 18.1718C23.188 18.3227 22.9958 18.4636 22.8028 18.6036C22.2858 18.9809 21.7715 19.3595 21.2518 19.7327C21.1897 19.7777 21.1897 19.8172 21.2096 19.879C21.39 20.43 21.5703 20.9822 21.7484 21.5354C21.7615 21.5763 21.7846 21.6159 21.776 21.689C21.6052 21.5272 21.3832 21.4654 21.3048 21.205C21.046 20.3522 20.7615 19.5081 20.4864 18.6604L20.4688 18.6022C20.5707 18.6022 20.6636 18.6031 20.7574 18.6013C20.8177 18.6009 20.814 18.6518 20.8245 18.6863C20.9101 18.9422 20.9917 19.1986 21.0796 19.4686Z" fill="#FBDC09"/>
<path fill-rule="evenodd" clip-rule="evenodd" d="M18.1797 21.9715C18.2363 21.7979 18.2839 21.6506 18.3306 21.5038C18.3416 21.4721 18.3628 21.4449 18.3908 21.4265C19.1503 20.8743 19.9084 20.3211 20.6701 19.7679C20.6809 19.7597 20.6959 19.7552 20.7127 19.7461C20.7376 19.8188 20.7571 19.8897 20.7861 19.9575C20.8146 20.027 20.8042 20.0675 20.7389 20.112C20.5387 20.2506 20.3429 20.3975 20.1458 20.5411C20.1245 20.5556 20.0991 20.5656 20.0892 20.5988C20.5799 20.9561 21.0656 21.3265 21.5691 21.6697C21.7893 21.8206 21.942 21.9947 21.9859 22.2593C21.9905 22.2902 22.0254 22.3284 21.9986 22.3515C21.961 22.3825 21.9325 22.3329 21.9075 22.3152C21.2455 21.836 20.5857 21.3536 19.9283 20.8679C19.839 20.802 19.7828 20.8006 19.6922 20.8675C19.2001 21.2338 18.7021 21.592 18.182 21.9715" fill="#FBDC09"/>
<path fill-rule="evenodd" clip-rule="evenodd" d="M19.6946 20.3291C19.6071 20.3913 19.5246 20.4945 19.4381 20.4982C19.3597 20.5027 19.275 20.4004 19.1934 20.3418C19.0325 20.2254 18.8721 20.1077 18.6981 19.9823L18.5001 20.5836C18.3492 21.0509 18.197 21.5186 18.0488 21.9873C18.0295 22.0585 17.9843 22.1198 17.9219 22.1591C17.8155 22.2268 17.7221 22.3177 17.5853 22.3859L18.3501 20.0273C18.4285 19.7841 18.4285 19.785 18.2251 19.6368L16.8997 18.6709C16.8766 18.6541 16.8476 18.6441 16.834 18.6023C16.9994 18.6023 17.1607 18.6004 17.3211 18.6027C17.3437 18.6036 17.3678 18.6223 17.3882 18.6368C18.1499 19.1913 18.9107 19.7459 19.6719 20.3013C19.6778 20.305 19.6814 20.3123 19.6937 20.3291" fill="#FBDC09"/>
<path fill-rule="evenodd" clip-rule="evenodd" d="M19.5783 16.2461C19.6376 16.4256 19.6848 16.5715 19.7346 16.7193C19.7446 16.7484 19.7382 16.777 19.7287 16.8052C19.436 17.7093 19.1433 18.6125 18.8497 19.5161C18.8478 19.522 18.842 19.5256 18.8306 19.5375C18.7608 19.4861 18.6911 19.432 18.6181 19.3838C18.5651 19.3479 18.5859 19.3097 18.6 19.2675C18.6748 19.0388 18.7445 18.8084 18.8238 18.5825C18.8528 18.5002 18.8424 18.4775 18.7504 18.4784C18.0889 18.4815 17.4273 18.4788 16.7653 18.4829C16.6809 18.4853 16.5985 18.4571 16.5333 18.4034C16.4359 18.3265 16.3339 18.2552 16.207 18.162H16.3561C17.1867 18.162 18.0186 18.1602 18.8492 18.1638C18.9348 18.1643 18.967 18.1388 18.9933 18.0575C19.1813 17.4611 19.3766 16.8684 19.5783 16.2461Z" fill="#FBDC09"/>
<path fill-rule="evenodd" clip-rule="evenodd" d="M22.6358 18.1867C22.5148 18.2762 22.392 18.3639 22.2705 18.4558C22.2343 18.483 22.1953 18.4812 22.155 18.4812C21.2383 18.4812 20.3244 18.4812 19.4045 18.4821C19.3316 18.4826 19.3075 18.4726 19.3356 18.3917C19.409 18.1649 19.4054 18.163 19.6438 18.163H20.3203C20.2242 17.8649 20.1322 17.5762 20.0393 17.2903C19.917 16.9135 19.796 16.5371 19.671 16.1626C19.6447 16.0932 19.6447 16.0165 19.671 15.9471C19.7145 15.8267 19.7525 15.7039 19.7947 15.5703C19.8336 15.6062 19.8363 15.6471 19.8481 15.683C20.1064 16.4771 20.3656 17.2712 20.6198 18.0671C20.6447 18.1439 20.6796 18.1653 20.758 18.1653C21.3453 18.1617 21.9339 18.1635 22.5207 18.1635H22.6276L22.6339 18.1867" fill="#FBDC09"/>
<path fill-rule="evenodd" clip-rule="evenodd" d="M19.8865 22.1093V23.0415C19.8865 23.0965 19.8924 23.1402 19.8106 23.1434C19.7251 23.1447 19.7247 23.102 19.7247 23.0397V21.1743C19.7247 21.1206 19.7192 21.0761 19.802 21.0743C19.887 21.0725 19.8874 21.1152 19.8874 21.1761C19.8856 21.487 19.8865 21.7979 19.8865 22.1093Z" fill="#F4D80E"/>
<path fill-rule="evenodd" clip-rule="evenodd" d="M18.1696 19.9232C18.1655 19.975 18.1166 19.9687 18.0871 19.9791C17.5592 20.1519 17.0309 20.3232 16.5012 20.495C16.438 20.5146 16.3753 20.5357 16.3132 20.5582C16.2579 20.5796 16.2262 20.5841 16.2012 20.5087C16.1763 20.4323 16.2139 20.4223 16.2669 20.4055C16.8596 20.2132 17.451 20.0191 18.0418 19.8264C18.1238 19.7996 18.1732 19.8387 18.1696 19.9232ZM21.4942 19.8032L21.568 19.8264C22.1598 20.0191 22.7507 20.2132 23.3429 20.4055C23.396 20.4219 23.4331 20.4319 23.4091 20.5087C23.3842 20.5841 23.3529 20.5764 23.2976 20.5582L21.5119 19.9764C21.4788 19.9655 21.4212 19.9664 21.4466 19.9005C21.4607 19.8655 21.4584 19.8214 21.4942 19.8032ZM18.8407 17.8728C18.8203 17.915 18.7786 17.9332 18.7437 17.9573C18.7047 17.9828 18.6948 17.9373 18.6812 17.9169C18.4669 17.6241 18.2548 17.3305 18.0414 17.0364C17.8796 16.8114 17.7187 16.5855 17.552 16.3641C17.5085 16.3059 17.5429 16.29 17.5805 16.2628C17.6168 16.2355 17.6426 16.2114 17.6834 16.2682C18.0568 16.7891 18.4329 17.3055 18.8081 17.8246C18.8189 17.8396 18.8289 17.8546 18.8407 17.8728ZM22.0887 16.3173C22.071 16.3419 22.0588 16.3609 22.0443 16.3787L20.9382 17.9064C20.9078 17.9505 20.8875 17.9814 20.8304 17.9341C20.7846 17.8964 20.7619 17.8755 20.8063 17.815C21.182 17.3019 21.554 16.7859 21.9278 16.2714C21.9423 16.2514 21.9509 16.2069 21.9922 16.2364C22.0271 16.2614 22.0674 16.28 22.0887 16.3173Z" fill="#FADC09"/>
</g>
<defs>
<clipPath id="clip0_1_5405">
<rect width="29" height="20" fill="white" transform="translate(5.5 10)"/>
</clipPath>
</defs>
</svg>
