<svg width="20" height="20" viewBox="0 0 20 20" fill="none" xmlns="http://www.w3.org/2000/svg">
<g clip-path="url(#clip0_402_1531)">
<mask id="path-1-inside-1_402_1531" fill="white">
<path fill-rule="evenodd" clip-rule="evenodd" d="M10.4943 19.3817L10.4851 19.3833L10.426 19.4125L10.4093 19.4158L10.3976 19.4125L10.3385 19.3833C10.3296 19.3805 10.3229 19.3819 10.3185 19.3875L10.3151 19.3958L10.301 19.7525L10.3051 19.7692L10.3135 19.78L10.4001 19.8417L10.4126 19.845L10.4226 19.8417L10.5093 19.78L10.5193 19.7667L10.5226 19.7525L10.5085 19.3967C10.5063 19.3878 10.5015 19.3828 10.4943 19.3817ZM10.7151 19.2875L10.7043 19.2892L10.5501 19.3667L10.5418 19.375L10.5393 19.3842L10.5543 19.7425L10.5585 19.7525L10.5651 19.7583L10.7326 19.8358C10.7432 19.8386 10.7513 19.8364 10.7568 19.8292L10.7601 19.8175L10.7318 19.3058C10.729 19.2958 10.7235 19.2897 10.7151 19.2875ZM10.1193 19.2892C10.1156 19.2869 10.1112 19.2862 10.1071 19.2871C10.1029 19.2881 10.0992 19.2906 10.0968 19.2942L10.0918 19.3058L10.0635 19.8175C10.064 19.8275 10.0688 19.8342 10.0776 19.8375L10.0901 19.8358L10.2576 19.7583L10.266 19.7517L10.2693 19.7425L10.2835 19.3842L10.281 19.3742L10.2726 19.3658L10.1193 19.2892Z"/>
</mask>
<path d="M10.4943 19.3817L10.6464 18.3933L10.4805 18.3678L10.3154 18.3978L10.4943 19.3817ZM10.4851 19.3833L10.3062 18.3995L10.1685 18.4245L10.043 18.4864L10.4851 19.3833ZM10.426 19.4125L10.6221 20.3931L10.7506 20.3674L10.8681 20.3094L10.426 19.4125ZM10.4093 19.4158L10.1346 20.3774L10.3677 20.4439L10.6054 20.3964L10.4093 19.4158ZM10.3976 19.4125L9.95549 20.3094L10.0363 20.3493L10.1229 20.374L10.3976 19.4125ZM10.3385 19.3833L10.7806 18.4864L10.7109 18.452L10.6368 18.4288L10.3385 19.3833ZM10.3185 19.3875L9.53761 18.7628L9.44502 18.8785L9.38999 19.0161L10.3185 19.3875ZM10.3151 19.3958L9.38665 19.0245L9.32276 19.1842L9.31593 19.3561L10.3151 19.3958ZM10.301 19.7525L9.30176 19.7128L9.29608 19.856L9.33083 19.995L10.301 19.7525ZM10.3051 19.7692L9.335 20.0117L9.38552 20.2138L9.51251 20.3789L10.3051 19.7692ZM10.3135 19.78L9.52085 20.3897L9.61196 20.5081L9.73372 20.5948L10.3135 19.78ZM10.4001 19.8417L9.82039 20.6564L9.96775 20.7613L10.1425 20.8079L10.4001 19.8417ZM10.4126 19.845L10.155 20.8112L10.4446 20.8884L10.7288 20.7937L10.4126 19.845ZM10.4226 19.8417L10.7388 20.7903L10.8806 20.7431L11.0024 20.6564L10.4226 19.8417ZM10.5093 19.78L11.0891 20.5948L11.2159 20.5045L11.3093 20.38L10.5093 19.78ZM10.5193 19.7667L11.3193 20.3666L11.4448 20.1993L11.4927 19.9957L10.5193 19.7667ZM10.5226 19.7525L11.4961 19.9815L11.5273 19.8489L11.5219 19.7127L10.5226 19.7525ZM10.5085 19.3967L11.5077 19.3569L11.5036 19.254L11.4786 19.1541L10.5085 19.3967ZM10.7151 19.2875L10.9728 18.3213L10.7703 18.2673L10.5632 18.2991L10.7151 19.2875ZM10.7043 19.2892L10.5523 18.3008L10.3963 18.3248L10.2552 18.3957L10.7043 19.2892ZM10.5501 19.3667L10.101 18.4732L9.957 18.5456L9.84304 18.6595L10.5501 19.3667ZM10.5418 19.375L9.8347 18.6679L9.6469 18.8557L9.57703 19.1119L10.5418 19.375ZM10.5393 19.3842L9.57453 19.1211L9.53369 19.2709L9.54018 19.426L10.5393 19.3842ZM10.5543 19.7425L9.55518 19.7843L9.56264 19.9625L9.63125 20.1271L10.5543 19.7425ZM10.5585 19.7525L9.63541 20.1371L9.7249 20.3519L9.89999 20.5051L10.5585 19.7525ZM10.5651 19.7583L9.90666 20.5109L10.0148 20.6055L10.1452 20.6659L10.5651 19.7583ZM10.7326 19.8358L10.3127 20.7434L10.3928 20.7804L10.4781 20.8029L10.7326 19.8358ZM10.7568 19.8292L11.5494 20.4389L11.6659 20.2875L11.7183 20.1039L10.7568 19.8292ZM10.7601 19.8175L11.7217 20.0922L11.7679 19.9303L11.7586 19.7622L10.7601 19.8175ZM10.7318 19.3058L11.7303 19.2505L11.7243 19.1425L11.6953 19.0382L10.7318 19.3058ZM10.1193 19.2892L9.60102 20.1444L9.63576 20.1654L9.67209 20.1836L10.1193 19.2892ZM10.0968 19.2942L9.2651 18.7389L9.21396 18.8156L9.17768 18.9002L10.0968 19.2942ZM10.0918 19.3058L9.17268 18.9119L9.1031 19.0742L9.09334 19.2505L10.0918 19.3058ZM10.0635 19.8175L9.06501 19.7622L9.06194 19.8176L9.06502 19.873L10.0635 19.8175ZM10.0776 19.8375L9.72652 20.7738L9.96131 20.8619L10.2099 20.8287L10.0776 19.8375ZM10.0901 19.8358L10.2224 20.827L10.3726 20.807L10.5101 20.7434L10.0901 19.8358ZM10.2576 19.7583L10.6776 20.6659L10.7876 20.615L10.8823 20.5392L10.2576 19.7583ZM10.266 19.7517L10.8906 20.5326L11.1098 20.3572L11.2058 20.0934L10.266 19.7517ZM10.2693 19.7425L11.2091 20.0842L11.2624 19.9377L11.2685 19.782L10.2693 19.7425ZM10.2835 19.3842L11.2827 19.4237L11.2884 19.2805L11.2536 19.1416L10.2835 19.3842ZM10.281 19.3742L11.2511 19.1316L11.1839 18.8629L10.9881 18.667L10.281 19.3742ZM10.2726 19.3658L10.9797 18.6587L10.865 18.544L10.7199 18.4714L10.2726 19.3658ZM10.4943 19.3817L10.3154 18.3978L10.3062 18.3995L10.4851 19.3833L10.6641 20.3672L10.6733 20.3655L10.4943 19.3817ZM10.4851 19.3833L10.043 18.4864L9.98382 18.5155L10.426 19.4125L10.8681 20.3094L10.9273 20.2803L10.4851 19.3833ZM10.426 19.4125L10.2299 18.4319L10.2132 18.4352L10.4093 19.4158L10.6054 20.3964L10.6221 20.3931L10.426 19.4125ZM10.4093 19.4158L10.684 18.4543L10.6723 18.451L10.3976 19.4125L10.1229 20.374L10.1346 20.3774L10.4093 19.4158ZM10.3976 19.4125L10.8398 18.5155L10.7806 18.4864L10.3385 19.3833L9.89633 20.2803L9.95549 20.3094L10.3976 19.4125ZM10.3385 19.3833L10.6368 18.4288C10.5268 18.3945 10.3431 18.3574 10.1229 18.4033C9.88112 18.4536 9.67807 18.5872 9.53761 18.7628L10.3185 19.3875L11.0993 20.0122C10.9633 20.1822 10.7658 20.3123 10.5307 20.3613C10.3172 20.4057 10.1412 20.3694 10.0402 20.3378L10.3385 19.3833ZM10.3185 19.3875L9.38999 19.0161L9.38665 19.0245L10.3151 19.3958L11.2436 19.7672L11.247 19.7588L10.3185 19.3875ZM10.3151 19.3958L9.31593 19.3561L9.30176 19.7128L10.301 19.7525L11.3002 19.7922L11.3144 19.4355L10.3151 19.3958ZM10.301 19.7525L9.33083 19.995L9.335 20.0117L10.3051 19.7692L11.2753 19.5266L11.2711 19.51L10.301 19.7525ZM10.3051 19.7692L9.51251 20.3789L9.52085 20.3897L10.3135 19.78L11.1061 19.1703L11.0978 19.1595L10.3051 19.7692ZM10.3135 19.78L9.73372 20.5948L9.82039 20.6564L10.4001 19.8417L10.9799 19.0269L10.8932 18.9652L10.3135 19.78ZM10.4001 19.8417L10.1425 20.8079L10.155 20.8112L10.4126 19.845L10.6703 18.8787L10.6578 18.8754L10.4001 19.8417ZM10.4126 19.845L10.7288 20.7937L10.7388 20.7903L10.4226 19.8417L10.1064 18.893L10.0964 18.8963L10.4126 19.845ZM10.4226 19.8417L11.0024 20.6564L11.0891 20.5948L10.5093 19.78L9.92956 18.9652L9.84289 19.0269L10.4226 19.8417ZM10.5093 19.78L11.3093 20.38L11.3193 20.3666L10.5193 19.7667L9.7193 19.1667L9.7093 19.18L10.5093 19.78ZM10.5193 19.7667L11.4927 19.9957L11.4961 19.9815L10.5226 19.7525L9.54922 19.5235L9.54589 19.5376L10.5193 19.7667ZM10.5226 19.7525L11.5219 19.7127L11.5077 19.3569L10.5085 19.3967L9.50927 19.4364L9.52343 19.7923L10.5226 19.7525ZM10.5085 19.3967L11.4786 19.1541C11.4492 19.0366 11.3832 18.8615 11.2303 18.6996C11.0653 18.5249 10.8551 18.4254 10.6464 18.3933L10.4943 19.3817L10.3423 20.37C10.1407 20.339 9.93655 20.2426 9.77624 20.0728C9.62807 19.916 9.56549 19.7478 9.53833 19.6392L10.5085 19.3967ZM10.7151 19.2875L10.5632 18.2991L10.5523 18.3008L10.7043 19.2892L10.8563 20.2775L10.8671 20.2759L10.7151 19.2875ZM10.7043 19.2892L10.2552 18.3957L10.101 18.4732L10.5501 19.3667L10.9993 20.2601L11.1535 20.1826L10.7043 19.2892ZM10.5501 19.3667L9.84304 18.6595L9.8347 18.6679L10.5418 19.375L11.2489 20.0821L11.2572 20.0738L10.5501 19.3667ZM10.5418 19.375L9.57703 19.1119L9.57453 19.1211L10.5393 19.3842L11.5041 19.6472L11.5066 19.6381L10.5418 19.375ZM10.5393 19.3842L9.54018 19.426L9.55518 19.7843L10.5543 19.7425L11.5534 19.7007L11.5384 19.3423L10.5393 19.3842ZM10.5543 19.7425L9.63125 20.1271L9.63541 20.1371L10.5585 19.7525L11.4815 19.3678L11.4774 19.3578L10.5543 19.7425ZM10.5585 19.7525L9.89999 20.5051L9.90666 20.5109L10.5651 19.7583L11.2236 19.0057L11.217 18.9999L10.5585 19.7525ZM10.5651 19.7583L10.1452 20.6659L10.3127 20.7434L10.7326 19.8358L11.1526 18.9283L10.9851 18.8508L10.5651 19.7583ZM10.7326 19.8358L10.4781 20.8029C10.6032 20.8358 10.7939 20.8605 11.0125 20.8002C11.2451 20.7361 11.4269 20.5982 11.5494 20.4389L10.7568 19.8292L9.96419 19.2194C10.0812 19.0674 10.2562 18.9342 10.4807 18.8722C10.6913 18.8142 10.8726 18.8386 10.9871 18.8687L10.7326 19.8358ZM10.7568 19.8292L11.7183 20.1039L11.7217 20.0922L10.7601 19.8175L9.79861 19.5428L9.79528 19.5545L10.7568 19.8292ZM10.7601 19.8175L11.7586 19.7622L11.7303 19.2505L10.7318 19.3058L9.73334 19.3611L9.76167 19.8728L10.7601 19.8175ZM10.7318 19.3058L11.6953 19.0382C11.6204 18.7683 11.3982 18.4347 10.9728 18.3213L10.7151 19.2875L10.4575 20.2537C10.2847 20.2077 10.118 20.112 9.98565 19.9664C9.85975 19.828 9.79827 19.6814 9.76829 19.5735L10.7318 19.3058ZM10.1193 19.2892L10.6376 18.4339C10.4135 18.2981 10.1457 18.2542 9.89013 18.311L10.1071 19.2871L10.324 20.2633C10.0768 20.3183 9.81781 20.2757 9.60102 20.1444L10.1193 19.2892ZM10.1071 19.2871L9.89013 18.311C9.6345 18.3678 9.41057 18.521 9.2651 18.7389L10.0968 19.2942L10.9285 19.8494C10.7878 20.0601 10.5712 20.2084 10.324 20.2633L10.1071 19.2871ZM10.0968 19.2942L9.17768 18.9002L9.17268 18.9119L10.0918 19.3058L11.0109 19.6998L11.0159 19.6881L10.0968 19.2942ZM10.0918 19.3058L9.09334 19.2505L9.06501 19.7622L10.0635 19.8175L11.0619 19.8728L11.0903 19.3611L10.0918 19.3058ZM10.0635 19.8175L9.06502 19.873C9.07337 20.0233 9.11804 20.2197 9.25141 20.408C9.38726 20.5998 9.56592 20.7136 9.72652 20.7738L10.0776 19.8375L10.4288 18.9012C10.5805 18.9581 10.7523 19.0669 10.8835 19.252C11.0121 19.4336 11.0541 19.6217 11.0619 19.762L10.0635 19.8175ZM10.0776 19.8375L10.2099 20.8287L10.2224 20.827L10.0901 19.8358L9.95792 18.8446L9.94542 18.8463L10.0776 19.8375ZM10.0901 19.8358L10.5101 20.7434L10.6776 20.6659L10.2576 19.7583L9.83772 18.8508L9.67022 18.9283L10.0901 19.8358ZM10.2576 19.7583L10.8823 20.5392L10.8906 20.5326L10.266 19.7517L9.64132 18.9708L9.63298 18.9774L10.2576 19.7583ZM10.266 19.7517L11.2058 20.0934L11.2091 20.0842L10.2693 19.7425L9.32951 19.4008L9.32618 19.4099L10.266 19.7517ZM10.2693 19.7425L11.2685 19.782L11.2827 19.4237L10.2835 19.3842L9.28426 19.3447L9.27009 19.703L10.2693 19.7425ZM10.2835 19.3842L11.2536 19.1416L11.2511 19.1316L10.281 19.3742L9.31084 19.6167L9.31334 19.6267L10.2835 19.3842ZM10.281 19.3742L10.9881 18.667L10.9797 18.6587L10.2726 19.3658L9.56554 20.0729L9.57387 20.0813L10.281 19.3742ZM10.2726 19.3658L10.7199 18.4714L10.5665 18.3947L10.1193 19.2892L9.67209 20.1836L9.82543 20.2602L10.2726 19.3658Z" fill="#A1A1A1" mask="url(#path-1-inside-1_402_1531)"/>
<path d="M5.60016 13.8667C5.81234 13.8048 6.0404 13.8297 6.23419 13.936C6.42798 14.0423 6.57161 14.2212 6.6335 14.4334C6.69538 14.6455 6.67044 14.8736 6.56417 15.0674C6.4579 15.2612 6.279 15.4048 6.06683 15.4667C5.65016 15.5884 5.35016 15.7167 5.15766 15.8334C5.356 15.9525 5.66933 16.0859 6.10433 16.21C7.06683 16.485 8.44433 16.6667 10.0002 16.6667C11.556 16.6667 12.9335 16.485 13.896 16.21C14.3318 16.0859 14.6443 15.9525 14.8427 15.8334C14.651 15.7167 14.351 15.5884 13.9343 15.4667C13.7255 15.4021 13.5504 15.258 13.4468 15.0655C13.3432 14.873 13.3194 14.6475 13.3805 14.4376C13.4416 14.2277 13.5828 14.0503 13.7735 13.9435C13.9642 13.8367 14.1893 13.8091 14.4002 13.8667C14.9568 14.0292 15.4668 14.2375 15.8585 14.505C16.221 14.7542 16.6668 15.1884 16.6668 15.8334C16.6668 16.4859 16.2102 16.9234 15.8418 17.1725C15.4435 17.4409 14.9227 17.65 14.3535 17.8125C13.2052 18.1417 11.6668 18.3334 10.0002 18.3334C8.3335 18.3334 6.79516 18.1417 5.64683 17.8125C5.07766 17.65 4.55683 17.4409 4.1585 17.1725C3.79016 16.9225 3.3335 16.4859 3.3335 15.8334C3.3335 15.1884 3.77933 14.7542 4.14183 14.505C4.5335 14.2375 5.0435 14.0292 5.60016 13.8667ZM10.0002 1.66669C11.6578 1.66669 13.2475 2.32517 14.4196 3.49727C15.5917 4.66937 16.2502 6.25908 16.2502 7.91669C16.2502 10.0567 15.0835 11.7967 13.8752 13.0334C13.3948 13.52 12.8787 13.9698 12.331 14.3792C11.836 14.7509 10.7043 15.4475 10.7043 15.4475C10.4897 15.5695 10.247 15.6337 10.0002 15.6337C9.75328 15.6337 9.51063 15.5695 9.296 15.4475C8.73438 15.1219 8.19132 14.7652 7.66933 14.3792C7.12086 13.9708 6.60461 13.5209 6.12516 13.0334C4.91683 11.7967 3.75016 10.0567 3.75016 7.91669C3.75016 6.25908 4.40864 4.66937 5.58075 3.49727C6.75285 2.32517 8.34256 1.66669 10.0002 1.66669ZM10.0002 6.25002C9.55814 6.25002 9.13421 6.42562 8.82165 6.73818C8.50909 7.05074 8.3335 7.47466 8.3335 7.91669C8.3335 8.35871 8.50909 8.78264 8.82165 9.0952C9.13421 9.40776 9.55814 9.58335 10.0002 9.58335C10.4422 9.58335 10.8661 9.40776 11.1787 9.0952C11.4912 8.78264 11.6668 8.35871 11.6668 7.91669C11.6668 7.47466 11.4912 7.05074 11.1787 6.73818C10.8661 6.42562 10.4422 6.25002 10.0002 6.25002Z" fill="black"/>
</g>
<defs>
<clipPath id="clip0_402_1531">
<rect width="20" height="20" fill="white"/>
</clipPath>
</defs>
</svg>
